<svg id="Layer_1" data-name="Layer 1" xmlns="http://www.w3.org/2000/svg" viewBox="0 0 717 130"><path d="M30.61,101.43s-6.24-7-14-7.8-3.13,10.92-3.13,10.92,4.3,4.3,12.1,3.52l18,.09s11.65-.09,56.14,20.2c0,0,12.62,4.68,15.28,0s4.23-9.37-6.7-10.93S67.69,101,67.69,101Z"/><path d="M12.05,91.49S-1.39,85.43.18,76.07,16.57,63.58,16.57,63.58H59s-16.26,3.51-14.7,12.88,27,4.39,27,4.39,12.79-4.39,5.76-14.54h8.59s18.73,12.49,14,20.29-18-6.24-18-6.24-3.12-7,7-3.9c0,0-4.68,3.9-3.12,3.9s11.71,0,3.9-7-10.4,4.21-10.4,4.21.92,14.16,15.41,13.95,10.54-5.55,5.89-18.49c0,0,39.05,19.85,39.83,34.68,0,0,6.25,28.87-39.8-3.13C100.47,104.55,93,85.46,12.05,91.49Z"/><path d="M79.79,67.48S66.52,65.14,62.62,69s4.68,6.25,4.68,6.25l-.39-5.86s6-3.82,8.46,1.6-6.9,8.55-6.9,8.55-15.61.78-20.29-3.9,13.21-13.27,20.26-12.1C68.44,63.58,80.18,62.41,79.79,67.48Z"/><path d="M40.42,90.32s2.68,11.5,3.46,6.82c1.16-6.93,5.88-6.7,5.88-6.7Z"/><path d="M96.26,100.3s3.74,3.76.7,9.33c-2,3.59,7-6.25,7-6.25Z"/><path d="M17.35,58.9H40.91s-11.08-7,2.19-18l-3-5.86H45l34.82,26h25.94l17.36-2.6-7.6,5.07s10.73,5.85,9.16,9.75-7.75,5.44-7.75,5.44l13.22,9.39V71.54a28.1,28.1,0,0,0,3.9-22.4s23.41-.78,23.41-13.27c0,0,7.81-10.93-35.12-3.9,0,0-16.22-15.51-34.65-14.78l-26.55,0S55.2-3.15,27.88,1.53A17.78,17.78,0,0,0,38,17.92S27.1,34.31,24.76,46.8C24.76,46.8,16.18,53.82,17.35,58.9Z"/><path d="M234.4,30.66V49.57H201.65v6.87h26.57V75.35H201.65v25H181V30.66Z"/><path d="M299.3,40A34.08,34.08,0,0,1,310,65.5,34.32,34.32,0,0,1,299.3,91.08c-7.07,6.87-15.83,10.26-26.38,10.26S253.61,98,246.54,91.08A34.32,34.32,0,0,1,235.89,65.5,34.08,34.08,0,0,1,246.54,40c7.07-6.87,15.93-10.36,26.38-10.36S292.23,33.15,299.3,40ZM261.77,77a15.86,15.86,0,0,0,22.3,0,16,16,0,0,0,4.48-11.55,15.69,15.69,0,0,0-4.48-11.35,15.5,15.5,0,0,0-22.2,0,15.73,15.73,0,0,0-4.48,11.35A16.39,16.39,0,0,0,261.77,77Z"/><path d="M377.35,40A34.12,34.12,0,0,1,388,65.5a34.36,34.36,0,0,1-10.65,25.58C370.28,98,361.52,101.34,351,101.34S331.65,98,324.59,91.08A34.33,34.33,0,0,1,313.93,65.5,34.09,34.09,0,0,1,324.59,40c7.06-6.87,15.92-10.36,26.38-10.36S370.28,33.15,377.35,40ZM339.82,77a15.86,15.86,0,0,0,22.3,0A16,16,0,0,0,366.6,65.4a15.73,15.73,0,0,0-4.48-11.35,15.5,15.5,0,0,0-22.2,0,15.69,15.69,0,0,0-4.48,11.35A16.34,16.34,0,0,0,339.82,77Z"/><path d="M414.38,100.34V30.66h29.46c10.46,0,19.32,3.38,26.38,10.05A32.74,32.74,0,0,1,480.87,65.5a32.76,32.76,0,0,1-10.65,24.79c-7.06,6.67-15.82,10-26.38,10ZM435,49.57V81.43h8.86a14.74,14.74,0,0,0,11.05-4.58,15.69,15.69,0,0,0,4.48-11.35,15.46,15.46,0,0,0-4.48-11.25,14.79,14.79,0,0,0-11.05-4.68Z"/><path d="M548.27,40A34.08,34.08,0,0,1,558.92,65.5a34.32,34.32,0,0,1-10.65,25.58c-7.07,6.87-15.83,10.26-26.38,10.26S502.58,98,495.51,91.08A34.32,34.32,0,0,1,484.86,65.5,34.08,34.08,0,0,1,495.51,40c7.07-6.87,15.93-10.36,26.38-10.36S541.2,33.15,548.27,40ZM510.74,77A15.86,15.86,0,0,0,533,77a16,16,0,0,0,4.48-11.55A15.73,15.73,0,0,0,533,54.05a15.5,15.5,0,0,0-22.2,0,15.69,15.69,0,0,0-4.48,11.35A16.34,16.34,0,0,0,510.74,77Z"/><path d="M620.84,35.24a34,34,0,0,1,13.93,15.33l-20.1,7.36a16.31,16.31,0,0,0-25.79-3.88A15.73,15.73,0,0,0,584.4,65.4a16.31,16.31,0,0,0,4.38,11.45,14.9,14.9,0,0,0,11.15,4.68c5.48,0,9.66-2,12.74-6.08h-16V59.53h39.52a27.91,27.91,0,0,1,.4,4.38q0,16.28-10.46,26.87c-6.86,7.07-15.73,10.56-26.38,10.56a36.55,36.55,0,0,1-26.08-10.16Q562.9,80.88,562.9,65.5c0-10.25,3.58-18.81,10.85-25.58s16.13-10.26,26.68-10.26A39,39,0,0,1,620.84,35.24Z"/><path d="M669.72,50.77c-.5-1.89-2.79-3.09-5.28-3.09s-4.08,1-4.08,2.49c0,1.09.7,2,2.59,2.79l2.79,1c1.69.5,5.67,1.59,7.76,2.29,5.28,1.69,9.06,3.39,13.34,6.87,4.28,3.29,6.67,8.66,6.67,15.33,0,7-2.49,12.54-7.37,16.73s-11.25,6.17-19.11,6.17A34.13,34.13,0,0,1,647.82,96a23.7,23.7,0,0,1-10.26-14.23l21-3.59c.79,2.89,4.28,5.08,8.56,5.08,3.18,0,5.77-1.2,5.77-2.79,0-.89-.59-1.69-2.59-2.49l-2.58-1a34.22,34.22,0,0,0-3.69-1.3l-3.78-1.19c-5.57-2-9.16-3.58-13.64-7.07s-6.87-8.76-6.87-15.53,2.19-11.94,6.67-16,10.36-6.17,17.62-6.17a29.78,29.78,0,0,1,17,5c4.87,3.28,8,7.47,9,12.74Z"/></svg>