<svg id="Layer_1" data-name="Layer 1" xmlns="http://www.w3.org/2000/svg" viewBox="0 0 360 360"><defs><style>.cls-1{fill:#da1e39;}.cls-2{fill:#171717;}</style></defs><path class="cls-1" d="M60.21,160.39a3.94,3.94,0,0,1-3.11-1.34,3.82,3.82,0,0,1-1-3.27l4.53-37H51.45l1.69-13.86h9.22l.58-4.65h13.9l-.57,4.65H90.13l-1.69,13.86H74.57l-3.11,25.47a2.09,2.09,0,0,0,.43,1.62,2,2,0,0,0,1.57.69H85l-1.69,13.86Z"/><path class="cls-1" d="M118.52,165l3.42-27.73H108l-2.84,23.12H91.32l2.85-23.12H89.56L90.71,128h4.61l3.38-27.77h13.87L109.19,128h13.9l2.84-23.12H139.8L132.39,165Z"/><path class="cls-1" d="M149.1,160.39a3.94,3.94,0,0,1-3.11-1.34,4.07,4.07,0,0,1-.93-3.27l2.27-18.51h-4.61l1.15-9.26h4.61l1.12-9.26H145l1.73-13.86h4.6l.54-4.65h13.87l-.54,4.65H193l-1.72,13.86H163.46L162.35,128h18.51l-1.15,9.26H161.2l-.85,6.95a2,2,0,0,0,.5,1.62,1.92,1.92,0,0,0,1.54.69h25.43l-1.69,13.86Z"/><path class="cls-1" d="M55.56,224.39a3.94,3.94,0,0,1-3.11-1.34,4,4,0,0,1-.92-3.27l2.26-18.51H49.18L50.34,192H55l2.84-23.12H71.66L68.81,192h4.65l-1.15,9.26H67.66l-1.15,9.26h6.95a2.67,2.67,0,0,0,1.77-.69,2.52,2.52,0,0,0,.84-1.62l.27-2.3H90.25l-1.69,13.86a5.46,5.46,0,0,1-5.23,4.61Z"/><path class="cls-1" d="M126.55,229l.54-4.61H101.23a3.83,3.83,0,0,1-3.07-1.34,4,4,0,0,1-1-3.27l6.26-50.89h13.87l-4.84,39.33a1.92,1.92,0,0,0,.5,1.62,1.88,1.88,0,0,0,1.53.69h14.29l5.11-41.64h13.87l-5.11,41.64h4.65l-1.73,13.86H141l-.53,4.61Z"/><path class="cls-1" d="M160.16,224.39a3.81,3.81,0,0,1-3.07-1.34,4,4,0,0,1-1-3.27l4.57-37h-4.61l1.69-13.86h4.61l.57-4.65h13.87l-.58,4.65H204a4,4,0,0,1,3.11,1.34,4,4,0,0,1,1,3.27l-1.69,13.9H192.5l.27-2.34a2,2,0,0,0-.46-1.61,1.86,1.86,0,0,0-1.53-.7H174.56l-3.14,25.47a1.91,1.91,0,0,0,.49,1.62,2,2,0,0,0,1.58.69h13.87a2.5,2.5,0,0,0,1.72-.69,2.53,2.53,0,0,0,.85-1.62l.27-2.3h13.9l-1.69,13.86a5,5,0,0,1-1.76,3.27,5.11,5.11,0,0,1-3.46,1.34Z"/><path class="cls-1" d="M210.67,224.39l6.8-55.5h13.87l-2.27,18.51,20.78-18.51,8.15,9.25L242.4,192h9.26a3.78,3.78,0,0,1,3.07,1.38,3.91,3.91,0,0,1,1,3.27l-3.42,27.73h-13.9L241,203.57a2,2,0,0,0-.46-1.61,2,2,0,0,0-1.57-.69H227.38l-2.84,23.12Z"/><path class="cls-1" d="M273.1,224.39l2.84-23.12h-9.26a3.83,3.83,0,0,1-3.07-1.35,3.93,3.93,0,0,1-1-3.26l3.42-27.77h13.86l-2.57,20.82a2,2,0,0,0,.5,1.65,2,2,0,0,0,1.54.65h9.25a2.62,2.62,0,0,0,1.73-.65,2.65,2.65,0,0,0,.85-1.65l2.57-20.82h13.91l-3.42,27.77a5,5,0,0,1-1.77,3.26,5.1,5.1,0,0,1-3.46,1.35H289.8L287,224.39Z"/><path class="cls-1" d="M55.56,288.39a3.83,3.83,0,0,1-3.07-1.34,4,4,0,0,1-1-3.27l4.57-37H51.49l1.69-13.86h4.61l.57-4.65H72.23l-.57,4.65H99.43a4,4,0,0,1,3.11,1.34,4,4,0,0,1,1,3.27l-1.69,13.9H87.9l.27-2.34a2,2,0,0,0-.46-1.61,1.86,1.86,0,0,0-1.53-.7H70l-3.15,25.47a1.91,1.91,0,0,0,.49,1.62,2,2,0,0,0,1.58.69H82.76a2.54,2.54,0,0,0,1.73-.69,2.57,2.57,0,0,0,.84-1.62l.27-2.3H99.5l-1.69,13.86a5,5,0,0,1-1.76,3.27,5.11,5.11,0,0,1-3.46,1.34Z"/><path class="cls-1" d="M110.45,288.39a3.94,3.94,0,0,1-3.11-1.34,4.06,4.06,0,0,1-.92-3.27l2.27-18.51h-4.61l1.15-9.26h4.61l2.84-23.12h13.87L123.71,256h4.64l-1.15,9.26h-4.65l-1.15,9.26h6.95a2.67,2.67,0,0,0,1.77-.69,2.53,2.53,0,0,0,.85-1.62l.26-2.3h13.91l-1.69,13.86a5.46,5.46,0,0,1-5.22,4.61Z"/><path class="cls-1" d="M181.44,293l.54-4.61H156.13a3.85,3.85,0,0,1-3.08-1.34,4,4,0,0,1-1-3.27l6.26-50.89h13.87l-4.84,39.33a2.05,2.05,0,0,0,2,2.31h14.29l5.11-41.64h13.86l-5.11,41.64h4.65l-1.73,13.86h-4.64l-.54,4.61Z"/><path class="cls-1" d="M205.83,288.39l1.69-13.86h2.31a2.54,2.54,0,0,0,1.73-.69,2.48,2.48,0,0,0,.88-1.62l3.11-25.47h-4.61l1.69-13.86h4.61l.58-4.65h13.87l-.58,4.65h27.77a4,4,0,0,1,3.11,1.34,3.91,3.91,0,0,1,1,3.27L260.73,256a5.24,5.24,0,0,1-1.81,3.27,4.91,4.91,0,0,1-3.42,1.38,3.84,3.84,0,0,1,3.07,1.34,3.91,3.91,0,0,1,1,3.27l-2.26,18.51a5.46,5.46,0,0,1-5.23,4.61H229l1.69-13.86h11.56a2.67,2.67,0,0,0,1.77-.69,2.52,2.52,0,0,0,.84-1.62l.58-4.65a2,2,0,0,0-.46-1.61,2,2,0,0,0-1.58-.69H227.15l-2.26,18.51a5.07,5.07,0,0,1-1.77,3.27,5,5,0,0,1-3.42,1.34ZM244.52,256a2.6,2.6,0,0,0,1.72-.65,2.65,2.65,0,0,0,.85-1.65l.58-4.65a2,2,0,0,0-.47-1.61,2,2,0,0,0-1.57-.7H229.42L228.31,256Z"/><path class="cls-2" d="M63.32,156.72a3.94,3.94,0,0,1-3.11-1.34,3.82,3.82,0,0,1-1-3.27l4.53-37H54.56l1.69-13.86h9.22l.58-4.65H80l-.57,4.65H93.24l-1.69,13.86H77.69l-3.12,25.47a2.09,2.09,0,0,0,.43,1.62,2,2,0,0,0,1.57.69H88.13l-1.69,13.86Z"/><path class="cls-2" d="M121.63,161.33l3.42-27.73H111.14l-2.84,23.12H94.43l2.85-23.12H92.67l1.15-9.26h4.61l3.38-27.77h13.87l-3.38,27.77h13.9L129,101.22h13.87l-7.41,60.11Z"/><path class="cls-2" d="M152.21,156.72a3.94,3.94,0,0,1-3.11-1.34,4.07,4.07,0,0,1-.93-3.27l2.27-18.51h-4.61l1.15-9.26h4.61l1.12-9.26H148.1l1.73-13.86h4.61l.53-4.65h13.87l-.54,4.65h27.78l-1.73,13.86H166.57l-1.11,9.26H184l-1.16,9.26H164.31l-.85,7a2,2,0,0,0,.5,1.62,1.92,1.92,0,0,0,1.54.69h25.43l-1.69,13.86Z"/><path class="cls-2" d="M58.67,220.72a3.94,3.94,0,0,1-3.11-1.34,4,4,0,0,1-.92-3.27L56.9,197.6H52.29l1.16-9.26h4.61l2.84-23.12H74.77l-2.85,23.12h4.65l-1.15,9.26H70.77l-1.15,9.26h6.95a2.67,2.67,0,0,0,1.77-.69,2.47,2.47,0,0,0,.84-1.62l.27-2.3H93.36l-1.69,13.86a5.46,5.46,0,0,1-5.23,4.61Z"/><path class="cls-2" d="M129.66,225.33l.54-4.61H104.34a3.83,3.83,0,0,1-3.07-1.34,4,4,0,0,1-1-3.27l6.26-50.89h13.87l-4.84,39.33a2.05,2.05,0,0,0,2,2.31h14.29l5.1-41.64H150.9l-5.11,41.64h4.65l-1.73,13.86h-4.65l-.53,4.61Z"/><path class="cls-2" d="M163.27,220.72a3.83,3.83,0,0,1-3.07-1.34,4,4,0,0,1-1-3.27l4.57-37H159.2l1.69-13.86h4.61l.58-4.65h13.86l-.57,4.65h27.77a4,4,0,0,1,3.11,1.34,4,4,0,0,1,1,3.27l-1.69,13.9h-13.9l.26-2.34a2,2,0,0,0-.46-1.61,1.89,1.89,0,0,0-1.53-.7H177.68l-3.15,25.47a1.92,1.92,0,0,0,.5,1.62,2,2,0,0,0,1.57.69h13.87a2.54,2.54,0,0,0,1.73-.69,2.57,2.57,0,0,0,.84-1.62l.27-2.3h13.91l-1.69,13.86a5.38,5.38,0,0,1-5.23,4.61Z"/><path class="cls-2" d="M213.78,220.72l6.8-55.5h13.87l-2.27,18.51L253,165.22l8.14,9.25-15.6,13.87h9.26a3.78,3.78,0,0,1,3.07,1.38,3.91,3.91,0,0,1,1,3.27l-3.42,27.73h-13.9l2.57-20.82a1.94,1.94,0,0,0-.46-1.61,2,2,0,0,0-1.57-.69H230.49l-2.84,23.12Z"/><path class="cls-2" d="M276.21,220.72l2.84-23.12h-9.26a3.83,3.83,0,0,1-3.07-1.35,3.93,3.93,0,0,1-1-3.26l3.42-27.77H283L280.47,186a2,2,0,0,0,.5,1.65,2,2,0,0,0,1.54.65h9.25a2.62,2.62,0,0,0,1.73-.65,2.65,2.65,0,0,0,.85-1.65l2.57-20.82h13.91L307.4,193a5,5,0,0,1-1.77,3.26,5.1,5.1,0,0,1-3.46,1.35h-9.25l-2.85,23.12Z"/><path class="cls-2" d="M58.67,284.72a3.83,3.83,0,0,1-3.07-1.34,4,4,0,0,1-1-3.27l4.57-37H54.6l1.69-13.86H60.9l.58-4.65H75.34l-.57,4.65h27.77a4,4,0,0,1,4.07,4.61l-1.69,13.9H91l.26-2.34a2,2,0,0,0-.46-1.61,1.89,1.89,0,0,0-1.53-.7H73.08l-3.15,25.47a1.92,1.92,0,0,0,.5,1.62,2,2,0,0,0,1.57.69H85.87a2.64,2.64,0,0,0,2.57-2.31l.27-2.3h13.91l-1.69,13.86a5.38,5.38,0,0,1-5.23,4.61Z"/><path class="cls-2" d="M113.56,284.72a4,4,0,0,1-3.11-1.34,4.06,4.06,0,0,1-.92-3.27l2.27-18.51h-4.61l1.15-9.26H113l2.84-23.12h13.87l-2.84,23.12h4.64l-1.15,9.26h-4.65l-1.15,9.26h7a2.67,2.67,0,0,0,1.77-.69,2.53,2.53,0,0,0,.85-1.62l.27-2.3h13.9l-1.69,13.86a5.44,5.44,0,0,1-5.22,4.61Z"/><path class="cls-2" d="M184.55,289.33l.54-4.61H159.24a3.81,3.81,0,0,1-3.07-1.34,4,4,0,0,1-1-3.27l6.27-50.89h13.86l-4.84,39.33a2,2,0,0,0,.5,1.62,1.92,1.92,0,0,0,1.54.69h14.29l5.11-41.64h13.86l-5.1,41.64h4.64l-1.72,13.86H199l-.54,4.61Z"/><path class="cls-2" d="M208.94,284.72l1.69-13.86h2.31a2.52,2.52,0,0,0,1.73-.69,2.44,2.44,0,0,0,.88-1.62l3.11-25.47h-4.61l1.69-13.86h4.61l.58-4.65H234.8l-.58,4.65H262a4,4,0,0,1,3.11,1.34,3.91,3.91,0,0,1,1,3.27l-2.26,18.51a5.19,5.19,0,0,1-1.81,3.27,4.91,4.91,0,0,1-3.42,1.38,3.88,3.88,0,0,1,3.08,1.34,4,4,0,0,1,1,3.27l-2.27,18.51a5.46,5.46,0,0,1-5.23,4.61H232.07l1.69-13.86h11.56a2.67,2.67,0,0,0,1.77-.69,2.47,2.47,0,0,0,.84-1.62l.58-4.65a2,2,0,0,0-.46-1.61,2,2,0,0,0-1.58-.69H230.26L228,280.11a5.07,5.07,0,0,1-1.77,3.27,5,5,0,0,1-3.42,1.34Zm38.69-32.38a2.64,2.64,0,0,0,1.73-.65,2.69,2.69,0,0,0,.84-1.65l.58-4.65a2,2,0,0,0-2-2.31H232.53l-1.11,9.26Z"/><path class="cls-1" d="M227.5,100.66c-.92.58-1.75,1.14-2.63,1.64q-7.27,4.15-14.58,8.27a2.35,2.35,0,0,1-1.08.33c-2.66-.05-6.22-2.58-7.2-5.09a4.92,4.92,0,0,1,1.86-5.43c.71,1.37,1.85,1.16,3,.74,5.68-2,11.38-4,17-6,2.87-1.06,5.66-2.36,8.47-3.61,1.5-.66,2.94-1,4.3.22a3.48,3.48,0,0,1,.88,4.21c-1.78,4.34-2.19,8.91-2.43,13.51a2.54,2.54,0,0,0,.35,1.42l10.2-9.22.18.2c-1.27,2.2-2.21,4.71-3.9,6.53-2,2.13-2.2,5.25-4.37,7-3.27,2.68-2.81,6.32-2.94,9.78-.36,9.92-.53,19.85-.88,29.78a9.85,9.85,0,0,1-1,4.06c-.94,1.79-2.73,1.85-4.05.3a9,9,0,0,1-1.88-6.33c.2-8.5.5-17,.76-25.51,0-.36,0-.73,0-1.34a9.11,9.11,0,0,0-.76.57q-6.69,6.45-13.39,12.92c-1.68,1.61-3.79,1.68-5.86,1.2a3.21,3.21,0,0,1-2.4-3.21,4.46,4.46,0,0,1,.74-2.69,273.22,273.22,0,0,0,21.65-33.75C227.6,101.08,227.54,101,227.5,100.66Zm-3.44,19.1c4.32-2.53,5.14-3.94,4.27-7.1Z"/><path class="cls-1" d="M243.91,115.72a15.15,15.15,0,0,1,3,1,4.2,4.2,0,0,0,3.87.26,83.91,83.91,0,0,1,27.59-4.7,23.72,23.72,0,0,1,7.22,1.26c2.73.92,4.15,2.7,3.64,6.11a121.66,121.66,0,0,1-8.05,28.07c-1.65,4-4.81,6.09-8.49,5.61a5.2,5.2,0,0,1-2.7-1.57c-1.7-1.7-3.17-3.62-4.86-5.33a3,3,0,0,0-2.14-.81c-3.63.33-7.32.47-10.59,2.49a2,2,0,0,1-1.93-.48,18.15,18.15,0,0,1-2.13-4,77.64,77.64,0,0,1-4.59-26.27A16,16,0,0,1,243.91,115.72Zm22,9.28c2.45,0,4.69-.07,6.91,0a9.62,9.62,0,0,1,3.13.7c1.37.58,1.51,1.9.32,2.84a8.25,8.25,0,0,1-2,.89c-2.51,1-5.06,1.94-7.53,3a2.43,2.43,0,0,0-1.15,1.64c-.27,2.1-.33,4.22-.46,6.18a42.61,42.61,0,0,1,4.26,1.48c1,.44,1.43,1.27.44,2.23,2.8,1.45,4.37.88,5.27-1.88s1.86-5.28,2.46-8c1.2-5.38,2.17-10.81,3.22-16.23.32-1.64-.53-2.2-2-2-3.91.46-7.82.91-11.71,1.46a1.72,1.72,0,0,0-1,1.27C265.85,120.75,265.91,122.89,265.91,125Zm-14.28,2.83,8.89-1.74v-7.91L250,121.64C250.53,123.74,251,125.64,251.63,127.83Zm2,11.4c1.82-1.32,3.2-2.51,4.75-3.41,2.19-1.27,2.4-3.13,2.1-5.59l-8.67,1.22C252.43,134.16,253,136.52,253.61,139.23Zm6.59-2.72-.52-.38c-1.74,1.34-3.53,2.64-5.18,4.08a1.85,1.85,0,0,0-.11,1.7c.15.34.94.59,1.41.54a12.92,12.92,0,0,0,3-.7,1.73,1.73,0,0,0,1-1C260.06,139.33,260.09,137.91,260.2,136.51Zm5.89-5.16,2.62-1.9C266.17,128.85,265.87,129.07,266.09,131.35Z"/><path class="cls-1" d="M263.52,108c-1.15.08-2.3.19-3.45.23a3.88,3.88,0,0,0-3.61,2.39c-.73,1.51-1.91,1.77-3.17.58a15.32,15.32,0,0,1-2.73-3.47,29.8,29.8,0,0,1-3.74-11.84,8.78,8.78,0,0,1,3-7c1.18-1.15,2.25.06,3,.63a3,3,0,0,0,3,.29q6.48-1.78,13-3.32c3.1-.73,5.74.57,8.06,2.44a4.46,4.46,0,0,1,1.52,5c-1.07,3.65-3.53,6.39-5.88,9.21a9.61,9.61,0,0,0-1.4,2.48c-.53,1.26-1.17,2.11-2.75,2.1a44.88,44.88,0,0,0-4.89.45Zm7-17.64c-4.94.76-9.62,1.46-13.87,3.79a1.34,1.34,0,0,0-.6,1c.37,2.82.78,5.64,1.27,8.44.06.3.78.78,1,.69,2-.64,4.52-.88,5.91-2.23A23.25,23.25,0,0,0,270.53,90.34Z"/><path class="cls-1" d="M225.05,80.91c.64-.84,1.31-1.65,1.92-2.51,1.37-1.92,1.27-2.09-.32-3.77-1.39-1.47-2.58-3.13-3.89-4.67-.65-.76-.44-1.33.35-1.7,1.88-.88,3.75-1.79,5.94-.89,1.78.72,3.63,1.23,5.41,1.94,4.11,1.65,7.16,7.73,6.06,12-.68,2.61-1.93,3.06-4.43,2.23-2.7-.89-5-3-8.15-2.58-.84.12-1.7.19-2.56.29Z"/><path class="cls-1" d="M250.92,82.25a25.65,25.65,0,0,1-3.29-.87c-1.73-.71-2-2.56-.48-3.61a10.19,10.19,0,0,1,4.19-1.69c4.39-.6,8.83-.85,13.23-1.4,2.64-.33,5.23-1.09,7.87-1.44a10.59,10.59,0,0,1,4,.34,2.64,2.64,0,0,1,1.68,1.71A2.78,2.78,0,0,1,277,77.55a13.19,13.19,0,0,1-4.32,1.4c-5.3.76-10.63,1.31-15.94,2C254.81,81.26,252.91,81.81,250.92,82.25Z"/></svg>